<svg xmlns="http://www.w3.org/2000/svg" xmlns:xlink="http://www.w3.org/1999/xlink" viewBox="0 0 1612 1018"><defs><style>.cls-1{fill:url(#Naamloos_verloop_54);}</style><linearGradient id="Naamloos_verloop_54" x1="1207.78" y1="205.22" x2="235.72" y2="1177.28" gradientUnits="userSpaceOnUse"><stop offset="0" stop-color="#ff5400"/><stop offset="0.23" stop-color="#ff6d00"/><stop offset="0.47" stop-color="#ff8500"/><stop offset="0.76" stop-color="#ff9e00"/><stop offset="1" stop-color="#fa0"/></linearGradient></defs><g id="Laag_2" data-name="Laag 2"><g id="Laag_1-2" data-name="Laag 1"><g id="logo_gradient" data-name="logo gradient"><path class="cls-1" d="M1481.5,757a129.83,129.83,0,0,0-57.08,13.12l-117.28-175A130.52,130.52,0,0,0,1154.36,385l-116-159.79A130.5,130.5,0,1,0,818,130.5q0,6.28.59,12.42l-566,137.5a130.52,130.52,0,1,0-137,175.75L111.32,758.4A130.51,130.51,0,1,0,260.08,903.09l1092.51,4.84A130.51,130.51,0,1,0,1481.5,757ZM859.19,225.66a130.58,130.58,0,0,0,150.74,20l116.9,161a130.75,130.75,0,0,0-30.91,129.86l-178,80.4a130.55,130.55,0,0,0-182.62-39.1L678.5,511.67a130.54,130.54,0,0,0,13.81-153.5ZM260.46,314.53,826.53,177a130,130,0,0,0,10.57,21.5L670.39,330.89a130.54,130.54,0,0,0-213.57,52.87L260.29,340.18A131.46,131.46,0,0,0,261,326.5C261,322.47,260.82,318.47,260.46,314.53ZM146.34,758l4.33-302.5A130.69,130.69,0,0,0,252,374.2L450.2,418.14q-.19,3.66-.2,7.36A130.52,130.52,0,0,0,652.08,534.63L709,600.9a130,130,0,0,0-32,85.6,132.45,132.45,0,0,0,1.48,19.74L248.7,832.12A130.62,130.62,0,0,0,146.34,758Zm1205.47,115h0L259.57,868.09c-.13-.86-.27-1.72-.41-2.57L688.35,739.81a130.56,130.56,0,0,0,237.9.89l426.44,125.72Q1352.17,869.65,1351.81,872.92Zm11.11-40L936.37,707.19A131.89,131.89,0,0,0,938,686.5a130.46,130.46,0,0,0-5.55-37.77l178.33-80.55a130.59,130.59,0,0,0,167.31,46.45l117.2,174.9A131,131,0,0,0,1362.92,832.94Z"/></g></g></g></svg>